<?xml version="1.0" standalone="no"?>
<!DOCTYPE svg PUBLIC "-//W3C//DTD SVG 20010904//EN"
 "http://www.w3.org/TR/2001/REC-SVG-20010904/DTD/svg10.dtd">
<svg version="1.0" xmlns="http://www.w3.org/2000/svg"
 width="2172.000000pt" height="1448.000000pt" viewBox="0 0 2172.000000 1448.000000"
 preserveAspectRatio="xMidYMid meet">
<metadata>
Created by potrace 1.15, written by Peter Selinger 2001-2017
</metadata>
<g transform="translate(0.000000,1448.000000) scale(0.100000,-0.100000)"
fill="#000000" stroke="none">
<path d="M6730 11650 c-13 -11 -33 -20 -45 -20 -13 0 -28 -7 -35 -15 -7 -9
-22 -12 -38 -9 -26 5 -120 -36 -182 -79 -13 -9 -34 -17 -46 -17 -12 0 -27 -6
-33 -14 -7 -8 -24 -17 -38 -21 -15 -3 -33 -15 -41 -26 -7 -10 -21 -19 -30 -19
-9 0 -28 -9 -42 -20 -14 -11 -33 -20 -43 -20 -11 0 -21 -9 -24 -20 -3 -12 -20
-27 -38 -34 -85 -36 -265 -209 -352 -340 -26 -39 -50 -73 -53 -76 -3 -3 -9
-12 -15 -21 -57 -92 -269 -403 -345 -505 -16 -23 -30 -46 -30 -52 0 -7 -4 -12
-9 -12 -5 0 -13 -10 -17 -22 -4 -13 -10 -25 -14 -28 -7 -5 -68 -112 -115 -204
-25 -49 -36 -60 -70 -72 -47 -17 -175 -52 -226 -63 -19 -4 -50 -15 -69 -24
-18 -9 -40 -17 -49 -17 -9 0 -29 -7 -45 -15 -27 -14 -31 -14 -63 11 -42 32
-64 66 -88 139 -25 72 -40 71 -31 -2 7 -64 35 -112 78 -138 32 -19 34 -27 12
-46 -14 -12 -14 -14 2 -26 16 -12 14 -13 -17 -13 -19 0 -42 -7 -52 -14 -10 -8
-26 -12 -35 -10 -9 3 -50 -16 -90 -41 l-74 -45 -36 16 c-21 9 -73 33 -117 54
-44 20 -91 41 -104 45 -14 4 -47 20 -75 35 -37 21 -53 37 -60 59 -11 39 -26
40 -26 2 0 -52 60 -102 227 -190 34 -18 71 -43 83 -56 l21 -23 -33 -23 c-18
-13 -71 -54 -117 -91 l-84 -67 -36 18 c-20 10 -60 24 -90 31 -51 12 -54 12
-78 -13 -29 -28 -24 -47 12 -47 29 0 105 -29 105 -40 0 -10 -68 -25 -100 -21
-13 1 -42 16 -65 32 -35 26 -41 28 -51 14 -15 -20 -28 -19 -74 7 -44 26 -54
22 -44 -17 8 -32 48 -59 129 -84 92 -29 169 -68 222 -111 26 -22 71 -51 101
-65 30 -14 77 -41 106 -59 55 -36 156 -123 156 -136 0 -4 -19 -20 -42 -35 -24
-16 -54 -39 -68 -53 -14 -14 -49 -40 -77 -59 -29 -18 -53 -37 -53 -42 0 -4
-22 -22 -50 -40 -27 -17 -67 -46 -89 -64 -21 -18 -67 -52 -101 -76 -33 -24
-66 -52 -73 -61 -7 -10 -15 -17 -18 -16 -12 2 -139 -86 -162 -114 -26 -30 -37
-30 -37 1 0 10 -5 21 -10 24 -11 7 -107 -21 -127 -37 -12 -10 -8 -58 8 -89 10
-20 -77 -105 -201 -194 -45 -33 -88 -65 -94 -71 -7 -6 -22 -15 -34 -18 -12 -4
-22 -13 -22 -20 0 -12 -52 -56 -66 -56 -3 0 -4 6 -1 14 3 8 1 17 -6 20 -7 2 1
5 16 5 15 1 30 8 34 16 7 21 3 24 -35 29 -29 3 -32 1 -32 -25 0 -32 -15 -37
-45 -15 -23 17 -13 46 16 46 29 0 19 20 -20 41 -18 9 -38 24 -44 32 -16 19
-45 28 -52 17 -9 -14 -35 0 -35 19 0 27 -20 40 -55 34 -30 -5 -35 -2 -50 26
-9 18 -22 30 -28 28 -7 -2 -25 2 -40 10 -16 8 -31 12 -34 9 -3 -3 -21 1 -40 9
-20 8 -53 15 -75 15 -21 0 -64 11 -96 24 -31 13 -78 27 -104 30 -26 4 -60 14
-77 22 l-29 15 -1 143 c0 167 -7 194 -75 289 l-48 67 16 40 c23 57 19 83 -5
38 -11 -21 -26 -38 -35 -38 -8 0 -42 18 -76 41 -103 68 -170 91 -279 96 -90 5
-102 3 -188 -28 -56 -21 -106 -47 -128 -66 -19 -18 -39 -33 -43 -33 -3 0 -17
-12 -31 -26 -13 -15 -38 -33 -56 -40 -20 -9 -30 -19 -27 -27 4 -11 -59 -107
-71 -107 -2 0 -20 14 -40 31 -34 30 -35 30 -35 8 l0 -22 -25 23 c-24 22 -24
25 -8 34 10 5 23 16 28 23 6 7 34 15 62 16 29 2 56 7 60 11 11 11 -290 -4
-303 -15 -6 -5 -13 -7 -16 -4 -3 3 -11 -1 -18 -10 -8 -9 -29 -15 -57 -15 -39
0 -50 -6 -95 -47 -50 -47 -78 -94 -78 -131 0 -15 5 -18 25 -14 19 3 28 14 37
43 13 45 35 70 42 48 14 -49 26 -128 20 -142 -4 -12 -18 -17 -43 -17 -21 0
-41 -3 -45 -7 -3 -4 -14 -8 -24 -9 -47 -7 -88 -17 -97 -24 -5 -4 -23 -11 -40
-15 -40 -11 -44 -12 -52 -15 -5 -1 -16 -2 -25 -1 -10 1 -18 -3 -18 -8 0 -6 -7
-11 -15 -11 -8 0 -12 -6 -9 -13 4 -10 -3 -12 -26 -9 -19 3 -30 0 -30 -7 0 -7
-4 -9 -10 -6 -5 3 -10 2 -10 -3 0 -6 -8 -8 -19 -5 -11 3 -27 -4 -38 -16 -12
-13 -26 -19 -37 -15 -13 5 -15 2 -9 -12 6 -17 5 -17 -10 -5 -14 11 -17 11 -17
0 0 -12 -85 -49 -117 -51 -10 -1 -13 -119 -13 -556 l0 -555 88 6 c61 4 75 3
47 -3 -22 -5 -61 -9 -88 -9 l-47 -1 2 -2046 3 -2047 90 -54 c107 -65 355 -187
479 -237 168 -67 167 -67 111 -90 -40 -17 -42 -25 -18 -55 39 -46 366 -95 713
-106 25 -1 88 -5 140 -8 212 -16 293 -19 465 -21 160 -1 307 5 430 18 22 3 72
7 110 11 123 10 177 15 315 29 174 17 330 21 729 20 283 -1 325 -3 336 -17 6
-8 19 -15 29 -14 11 1 21 -4 23 -11 3 -7 -4 -12 -16 -12 -11 0 -23 -4 -26 -10
-3 -5 -1 -10 4 -10 6 0 11 -7 11 -15 0 -8 9 -15 19 -15 24 0 36 16 19 24 -7 3
5 3 27 0 22 -3 46 -10 52 -16 7 -6 18 -8 25 -5 7 2 24 0 38 -5 14 -5 47 -11
74 -12 42 -1 53 3 78 28 19 19 32 25 37 18 11 -18 63 -34 75 -22 16 16 86 12
92 -5 4 -8 10 -13 14 -10 11 7 74 -21 90 -40 7 -9 21 -13 31 -10 13 4 19 1 19
-8 0 -17 -34 -49 -43 -40 -4 3 -7 -1 -7 -10 0 -14 6 -16 29 -12 17 3 33 1 36
-5 3 -5 17 -10 30 -10 13 0 27 -4 30 -10 7 -11 105 -9 105 3 0 4 5 7 11 7 5 0
7 -5 4 -10 -4 -6 9 -9 34 -7 23 2 41 -1 41 -6 0 -4 10 -8 23 -7 12 1 24 1 27
0 18 -7 206 -23 265 -22 35 0 44 -2 30 -7 -13 -6 4 -9 51 -10 38 0 92 -6 120
-11 27 -6 83 -12 124 -14 159 -8 369 -25 388 -31 74 -25 1004 -25 1227 -1 280
31 344 43 433 83 55 25 67 35 30 25 -21 -5 -22 -4 -9 11 7 9 27 17 43 17 52 0
205 88 157 91 -8 0 -6 4 6 9 18 8 18 9 2 9 -14 1 -16 5 -7 21 6 11 16 17 25
14 17 -7 21 11 4 21 -7 5 -2 16 12 31 13 14 17 24 10 24 -7 0 2 12 19 26 17
15 29 33 26 40 -4 9 8 20 34 31 22 10 42 24 45 33 5 12 4 13 -6 2 -7 -6 -17
-12 -22 -12 -5 0 -2 7 7 15 8 8 19 15 25 15 20 0 60 23 55 31 -3 5 9 9 25 9
21 0 31 5 31 15 0 8 9 15 19 15 24 0 36 16 19 24 -7 3 0 4 15 2 18 -2 31 2 34
10 3 8 13 14 22 15 13 0 12 2 -3 8 -18 7 -18 8 -3 14 21 8 22 27 2 27 -8 0
-15 5 -15 10 0 13 27 13 35 0 10 -16 25 -12 19 5 -3 8 -3 19 0 24 9 15 38 1
32 -15 -3 -8 0 -11 10 -7 19 7 18 22 -2 30 -13 5 -10 11 13 36 20 22 23 28 10
24 -13 -5 -17 -3 -15 5 3 7 14 14 26 16 12 2 20 8 17 13 -4 5 0 9 7 9 12 0 52
38 53 50 0 3 8 16 18 30 15 21 19 23 27 10 7 -11 14 -12 25 -5 9 6 16 14 15
18 -1 5 7 16 17 25 10 9 18 23 19 30 1 6 2 24 3 39 1 26 2 26 16 7 13 -18 14
-18 15 -1 0 10 4 16 9 12 6 -3 8 5 5 19 -2 15 1 26 12 30 12 5 13 8 2 20 -9
10 -15 10 -20 3 -10 -16 -20 -3 -12 17 3 9 10 13 15 10 5 -3 9 0 9 5 0 6 6 10
13 9 7 -2 11 6 10 17 -1 13 9 25 30 36 31 15 50 42 26 37 -20 -4 -23 37 -5 55
9 9 16 20 16 25 0 5 7 15 15 22 11 9 13 16 5 24 -16 16 -12 25 10 19 16 -4 19
-2 13 13 -5 13 -3 16 9 12 19 -8 44 38 25 46 -7 2 -3 5 8 6 19 1 19 1 2 14
-17 14 -17 15 1 28 10 7 22 27 26 43 4 17 14 37 22 46 14 15 13 19 -8 33 -12
9 -17 16 -10 16 6 0 12 7 12 15 0 8 8 15 18 16 13 0 12 3 -5 11 -13 6 -23 18
-23 26 0 21 32 92 42 92 16 0 8 19 -9 22 -15 3 -14 6 7 26 30 28 37 98 11 105
-13 4 -12 5 3 6 12 1 16 6 12 16 -3 9 4 21 19 31 30 20 33 34 5 27 -11 -3 -20
0 -20 6 0 6 5 11 10 11 12 0 39 26 63 60 20 28 21 40 6 40 -7 0 -20 9 -30 21
-18 20 -17 22 8 45 14 13 20 24 14 24 -8 0 -10 8 -6 20 4 11 2 20 -4 20 -6 0
-11 -4 -11 -9 0 -10 -25 -9 -36 1 -3 4 -2 13 2 20 16 25 32 80 28 93 -3 7 -14
15 -25 18 -10 3 -19 11 -19 17 0 10 4 9 15 0 21 -18 35 -2 38 43 2 20 6 39 10
43 12 12 8 24 -8 24 -28 0 -28 29 -1 65 15 19 22 35 17 35 -6 0 -11 -5 -11
-11 0 -6 -9 -9 -20 -6 -15 4 -20 0 -20 -13 0 -11 -5 -22 -10 -25 -23 -14 5 93
33 125 16 19 11 25 -15 21 -5 0 -8 6 -8 14 0 18 12 19 29 3 10 -11 12 -9 9 7
-2 11 -8 20 -15 20 -6 0 -15 3 -19 8 -4 4 -2 7 4 7 7 0 12 7 12 15 0 8 -6 12
-14 9 -11 -4 -13 0 -9 15 3 13 13 21 26 21 20 0 20 0 -2 19 -13 12 -18 22 -11
26 5 3 10 1 10 -4 0 -6 4 -11 9 -11 5 0 7 9 4 20 -3 11 -9 20 -14 20 -17 0 -9
17 14 28 20 10 21 11 2 11 -16 1 -20 9 -22 41 -2 37 -1 40 17 30 12 -7 21 -7
25 0 3 5 -1 10 -9 10 -9 0 -16 5 -16 10 0 6 9 10 20 10 24 0 26 13 5 30 -18
15 -20 13 -35 -20 -9 -23 -10 -22 -5 10 10 71 11 89 4 84 -4 -2 -10 3 -13 12
-8 22 -8 22 16 26 39 6 29 24 -20 36 -37 10 -50 19 -61 43 -14 33 -5 53 30 64
27 9 24 24 -7 35 -18 7 -24 15 -20 26 3 8 2 12 -4 9 -6 -3 -10 3 -10 15 0 14
4 19 12 14 8 -5 9 -2 5 10 -15 40 -18 64 -8 70 6 4 11 12 11 17 0 6 -4 7 -10
4 -5 -3 -10 0 -10 7 0 7 -8 -2 -16 -19 -9 -18 -20 -33 -25 -33 -13 0 -11 14 3
28 10 10 10 15 -2 22 -12 8 -12 10 3 16 13 5 15 10 6 20 -6 7 -7 19 -3 26 6
10 5 10 -7 1 -12 -9 -14 -5 -16 24 -1 31 0 33 15 21 15 -12 16 -11 3 4 -7 10
-11 26 -9 36 3 10 -2 24 -10 32 -14 12 -15 11 -10 -8 4 -16 0 -25 -13 -33 -26
-14 -42 -3 -29 20 5 10 6 21 3 25 -3 3 4 14 16 25 14 12 17 21 10 23 -7 2 -13
17 -15 33 -2 17 -12 36 -24 44 -25 17 -29 91 -4 91 8 0 12 5 9 10 -3 6 -15 10
-27 10 -16 0 -18 3 -9 14 10 11 8 15 -6 18 -10 2 -18 12 -19 23 -4 87 -4 90
-14 75 -9 -13 -10 -13 -10 0 0 8 -9 21 -20 28 -11 7 -20 20 -20 29 0 9 -5 32
-12 50 -10 28 -10 36 1 42 7 5 10 14 7 20 -4 6 -12 9 -17 6 -5 -4 -9 8 -9 26
0 26 -3 29 -14 20 -11 -9 -15 -8 -20 4 -3 9 -2 14 3 11 5 -3 11 4 14 17 2 12
8 30 12 40 4 10 3 17 -4 17 -6 0 -11 -8 -11 -17 -1 -15 -3 -15 -19 5 -13 15
-21 18 -24 10 -4 -10 -8 -10 -15 1 -6 8 -15 10 -22 6 -9 -5 -11 -4 -6 3 4 7
13 12 20 12 8 0 16 9 19 20 6 22 -8 28 -16 8 -2 -7 -8 -10 -12 -6 -4 4 -2 15
5 23 7 9 9 15 4 14 -21 -4 -28 2 -14 11 13 9 13 12 -2 20 -10 7 -14 17 -10 32
4 15 2 19 -7 14 -8 -5 -14 -1 -18 12 -5 22 -29 36 -44 26 -5 -3 -9 4 -9 16 0
30 -19 62 -32 54 -6 -4 -8 -3 -4 4 3 6 -5 22 -19 36 -14 14 -25 22 -25 19 0
-3 -9 2 -20 12 -24 22 -26 35 -4 35 8 0 12 -4 9 -10 -3 -5 3 -10 14 -10 19 0
26 -10 22 -32 0 -5 5 -8 13 -8 12 0 12 4 -1 30 -8 17 -19 28 -24 25 -5 -4 -9
-2 -9 3 0 6 7 13 16 16 21 8 9 25 -14 19 -10 -2 -24 3 -31 11 -8 9 -20 16 -28
16 -9 0 -12 6 -9 18 5 15 1 18 -21 17 -16 -1 -20 0 -10 2 18 5 23 18 8 27 -5
4 -11 1 -13 -5 -2 -6 -12 5 -23 25 -11 21 -25 34 -33 31 -13 -5 -52 23 -52 38
0 5 7 7 15 4 17 -7 28 7 31 43 l3 25 -13 -24 -13 -24 -16 33 c-9 18 -15 36
-12 40 3 4 -3 7 -12 6 -9 0 -18 5 -21 13 -3 8 0 11 7 7 6 -4 11 -2 11 5 0 8
-11 9 -32 5 -21 -4 -28 -3 -19 3 14 9 6 55 -9 46 -4 -3 -10 2 -14 10 -3 8 -13
15 -21 15 -12 0 -15 6 -10 21 5 16 1 22 -23 31 -17 7 -37 25 -46 42 -9 17 -15
24 -12 15 3 -12 -1 -15 -19 -11 -13 2 -22 9 -20 16 3 6 -2 20 -10 30 -12 16
-18 17 -27 8 -16 -16 -31 -15 -25 2 6 15 -31 36 -63 36 -11 0 -20 5 -20 10 0
6 5 10 11 10 8 0 8 5 -1 15 -7 8 -16 13 -20 10 -5 -3 -11 1 -13 7 -4 10 -7 10
-15 0 -7 -10 -11 -10 -22 3 -8 10 -25 15 -44 13 -21 -2 -30 1 -29 10 2 6 -4
12 -12 12 -8 0 -15 5 -15 11 0 6 -9 8 -22 3 -20 -6 -21 -5 -9 10 12 14 12 16
-4 10 -14 -6 -16 -4 -10 6 5 9 4 11 -4 6 -17 -11 -51 3 -51 20 0 10 -5 12 -12
7 -21 -12 -62 -2 -77 19 -9 14 -16 17 -21 8 -5 -9 -17 -9 -51 1 -24 7 -47 12
-51 11 -4 -1 -9 7 -13 17 -4 12 -16 18 -42 19 -20 1 -41 6 -47 12 -6 6 -14 6
-23 -1 -7 -7 -13 -8 -13 -4 0 4 -7 1 -16 -6 -15 -12 -16 -11 -9 10 6 19 4 22
-12 17 -22 -7 -48 8 -39 22 3 5 -5 10 -19 10 -15 0 -25 -6 -25 -15 0 -9 -5
-11 -12 -6 -7 4 -21 9 -32 10 -19 3 -19 -6 0 -51 5 -14 4 -17 -4 -12 -7 4 -12
14 -12 22 0 8 -9 14 -19 14 -10 0 -22 7 -25 16 -9 22 -8 26 6 18 7 -4 8 -3 4
4 -5 9 -13 9 -28 1 -11 -6 -18 -7 -14 -1 8 13 -35 21 -62 11 -13 -5 -22 -4
-22 2 0 5 7 12 15 15 8 4 15 12 15 20 0 17 12 18 27 3 7 -7 13 -7 17 -1 10 16
-33 25 -50 11 -12 -10 -13 -9 -8 6 5 12 4 16 -3 12 -6 -4 -14 -1 -17 5 -3 7
-4 1 -2 -14 4 -34 -6 -36 -19 -5 -12 28 -31 20 -26 -12 2 -16 -1 -22 -11 -19
-7 3 -12 16 -10 29 1 17 -1 20 -7 10 -13 -19 -23 2 -16 36 3 15 2 22 -1 15 -3
-6 -11 -9 -17 -5 -6 4 -8 0 -4 -9 3 -10 -3 -19 -19 -27 -23 -10 -24 -9 -18 14
5 19 3 24 -8 20 -8 -3 -21 1 -28 9 -7 9 -16 13 -21 10 -5 -3 -9 0 -9 5 0 6 8
11 18 11 10 0 27 7 38 15 18 14 18 14 -11 15 l-30 1 24 19 c12 11 27 18 31 15
13 -8 33 24 26 42 -6 15 -5 16 5 6 17 -17 30 -16 23 1 -3 7 2 16 10 19 9 4 16
2 16 -3 0 -6 8 -10 18 -10 13 0 14 2 3 9 -9 6 -10 10 -2 16 7 4 19 1 28 -7 15
-11 16 -11 10 5 -3 9 -2 17 3 17 6 0 10 -5 10 -11 0 -8 6 -7 17 2 15 12 16 12
8 -1 -5 -10 -1 -8 13 4 19 16 44 19 202 24 106 3 222 0 283 -7 56 -6 127 -13
157 -16 30 -3 62 -8 70 -10 8 -3 62 -11 120 -20 755 -112 1377 -516 1765
-1145 347 -564 506 -1238 440 -1871 -8 -79 -17 -164 -19 -189 -9 -84 -57 -304
-96 -441 -84 -291 -198 -570 -320 -784 -10 -16 -26 -45 -36 -63 l-19 -33 130
-127 c72 -70 155 -158 186 -194 71 -83 114 -121 164 -142 22 -10 51 -23 65
-31 14 -7 62 -33 108 -56 45 -24 78 -45 72 -47 -22 -8 -9 -19 18 -16 26 4 26
4 -3 -6 -20 -6 -31 -6 -33 0 -4 12 -32 14 -32 2 0 -12 -700 -6 -730 6 -19 8
-20 11 -7 11 10 1 16 5 13 10 -7 11 40 25 72 22 12 -1 22 3 22 9 0 6 5 8 10 5
6 -4 8 -10 5 -15 -12 -20 18 -20 32 -1 11 16 18 19 28 11 9 -8 14 -7 18 4 4 9
14 12 28 9 14 -4 20 -2 16 4 -7 11 14 24 48 29 38 5 54 10 61 17 4 4 2 7 -4 7
-7 0 -12 5 -12 10 0 6 7 10 16 10 13 0 11 5 -7 24 -19 19 -26 22 -41 12 -14
-8 -20 -8 -26 0 -4 7 -40 12 -92 13 -47 0 -121 3 -165 7 -75 5 -103 8 -181 20
-29 4 -40 -4 -140 -112 -60 -64 -120 -122 -134 -129 -14 -7 -44 -31 -67 -52
-212 -191 -434 -343 -686 -469 -95 -47 -97 -49 -72 -60 29 -12 75 -7 75 7 0 5
44 8 98 7 53 0 122 4 152 10 30 6 87 14 127 17 39 3 77 7 85 10 7 2 92 9 188
15 96 6 218 15 270 20 52 5 136 12 185 15 50 4 99 8 110 11 11 2 52 6 90 9 39
2 81 7 95 9 59 11 137 16 325 21 579 15 933 34 1495 80 244 20 391 34 420 40
14 2 59 7 100 10 143 10 377 48 455 73 57 18 96 42 91 57 -9 27 42 70 141 118
77 37 108 57 116 76 6 14 21 36 32 48 39 43 62 69 115 130 30 35 61 63 71 63
11 0 19 4 19 8 0 11 51 36 65 33 6 -2 7 0 3 4 -8 8 15 35 30 35 6 0 34 26 63
57 29 32 56 57 61 55 5 -1 14 11 19 27 6 16 17 32 25 35 8 3 14 12 14 20 0 9
11 18 24 22 15 3 31 20 42 42 20 44 37 62 57 62 15 0 30 24 31 50 1 8 11 19
24 25 12 5 22 18 22 28 0 11 9 21 21 24 16 4 17 8 7 14 -10 7 -11 9 0 9 7 0
10 5 7 10 -7 11 18 40 34 40 6 0 11 5 11 11 0 7 9 9 21 6 12 -3 19 -3 16 0 -3
3 7 16 22 29 19 15 29 33 29 51 0 17 8 33 21 41 11 8 21 19 21 24 0 5 11 21
24 35 13 14 22 32 19 39 -3 8 2 21 11 30 9 8 14 19 11 24 -3 4 2 13 10 20 8 7
12 16 9 21 -3 5 6 23 21 40 42 51 138 256 131 283 -4 15 1 30 15 45 21 22 22
28 34 121 3 30 11 60 16 67 7 8 7 18 0 31 -9 18 4 81 22 98 4 4 7 23 7 43 0
19 10 55 21 79 12 24 25 72 28 106 4 33 13 71 20 84 27 51 7 507 -25 559 -8
12 -14 31 -14 42 0 11 -12 57 -26 103 -26 83 -32 98 -53 151 -6 15 -11 43 -11
62 0 19 -4 37 -10 40 -5 3 -10 13 -10 22 0 22 -77 178 -95 193 -8 7 -15 23
-15 36 0 15 -6 24 -15 24 -8 0 -15 7 -15 16 0 10 -6 14 -15 10 -9 -3 -15 0
-15 10 0 12 -7 14 -30 9 -19 -4 -30 -3 -30 4 0 6 5 11 10 11 6 0 10 7 10 15 0
8 -6 12 -14 9 -9 -3 -19 6 -27 25 -17 39 -29 40 -29 1 0 -38 -37 -75 -58 -58
-29 25 -30 50 -3 75 22 19 24 24 11 33 -13 9 -13 11 0 20 12 8 10 10 -9 8 -20
-3 -26 3 -33 31 -5 18 -16 40 -23 48 -8 8 -22 31 -32 51 -10 20 -28 52 -40 71
-13 18 -20 38 -17 43 8 13 -23 45 -52 52 -19 5 -24 13 -24 37 0 58 -38 102
-82 95 -14 -3 -31 0 -36 7 -12 15 -12 47 1 47 5 0 3 7 -4 17 -8 9 -13 19 -11
22 1 3 -5 14 -13 24 -8 9 -15 21 -15 26 0 5 -13 19 -30 31 -16 12 -30 30 -30
39 0 18 -53 66 -112 104 -18 11 -28 26 -28 42 0 26 -18 33 -37 14 -10 -10 -35
4 -135 81 -14 11 -33 20 -41 20 -27 0 -87 30 -87 44 0 9 -17 16 -44 20 -31 5
-64 22 -108 54 l-63 48 -88 -15 c-73 -12 -95 -13 -130 -2 -23 7 -58 14 -77 15
-19 2 -45 3 -57 4 -12 1 -28 8 -35 15 -7 6 -31 22 -53 34 -22 11 -53 40 -69
63 -15 23 -35 44 -42 47 -21 8 -64 -24 -64 -48 0 -58 -44 -74 -117 -44 -19 8
-55 15 -78 15 -50 0 -138 37 -210 89 -27 19 -52 38 -55 42 -3 4 -27 19 -54 34
-42 23 -54 26 -95 19 -57 -10 -87 -7 -129 12 -76 35 -112 29 -119 -20 -5 -31
-12 -32 -55 -7 -41 23 -113 30 -160 15 -12 -3 -31 4 -53 20 -18 14 -44 26 -57
26 -13 0 -29 5 -36 12 -9 9 -12 8 -12 -6 0 -16 -1 -16 -17 -1 -21 22 -65 15
-198 -29 -112 -38 -149 -67 -189 -144 -14 -26 -45 -76 -71 -112 -25 -36 -65
-94 -89 -130 -56 -85 -74 -100 -104 -89 -14 5 -23 16 -21 26 3 33 -1 43 -16
43 -8 0 -15 -4 -15 -8 0 -12 -32 -11 -47 0 -7 5 -14 5 -18 -1 -4 -7 -12 -7
-25 1 -16 10 -23 8 -45 -12 -14 -13 -25 -18 -25 -12 0 15 23 66 33 73 5 3 7
19 5 35 -2 21 -8 28 -20 26 -27 -4 -32 18 -9 40 28 26 27 104 -1 102 -20 -2
-26 40 -8 51 6 3 10 1 10 -5 0 -6 10 -4 25 6 l25 16 -23 18 c-21 18 -22 17
-34 -11 -14 -33 -28 -37 -42 -11 -7 13 -4 24 10 42 10 14 19 32 19 41 0 22
-29 79 -41 79 -6 0 -6 7 0 19 14 26 9 82 -6 76 -19 -7 -17 69 2 85 17 14 20
57 5 62 -6 2 -5 13 3 28 8 14 12 31 9 38 -3 10 9 16 29 14 3 -1 4 11 2 26 -4
21 -2 24 6 12 9 -12 11 -12 16 2 4 10 5 23 2 30 -2 7 5 26 15 41 16 22 17 31
8 42 -10 12 -10 15 0 15 9 0 11 11 6 38 -3 20 -8 66 -10 102 -3 36 -9 76 -14
90 -5 14 -8 43 -7 65 3 54 -10 78 -41 72 -28 -5 -29 -1 -9 33 18 32 18 40 0
40 -11 0 -12 5 -5 25 6 16 6 25 0 25 -6 0 -10 7 -10 15 0 7 -8 19 -17 25 -13
8 -14 13 -5 16 6 3 10 10 6 15 -3 5 0 9 5 9 6 0 11 10 11 21 0 20 -4 21 -45
15 -45 -7 -45 -7 -43 21 4 55 -2 83 -16 83 -18 0 -60 67 -59 92 1 10 -2 16 -8
13 -5 -4 -9 3 -9 13 0 11 -6 22 -14 25 -7 3 -17 22 -20 42 -5 26 -14 39 -29
43 -20 5 -20 6 -1 13 17 7 17 8 1 8 -10 1 -26 -3 -36 -9 -15 -7 -23 -2 -45 31
-25 39 -25 41 -7 46 25 6 35 31 20 49 -6 8 -9 20 -6 28 3 8 -1 20 -8 26 -8 7
-12 16 -9 22 3 5 0 15 -6 23 -9 11 -9 15 -1 15 10 0 -1 15 -49 65 -11 12 -20
35 -20 52 0 17 -6 36 -14 43 -8 6 -16 21 -18 33 -2 16 -9 21 -24 19 -17 -2
-21 2 -21 25 0 15 -5 29 -10 30 -6 2 -8 15 -5 28 4 21 0 25 -19 26 -22 0 -23
1 -4 9 19 8 19 9 -2 9 -13 1 -23 5 -23 9 0 4 -13 16 -30 25 -26 16 -28 21 -20
43 13 33 13 34 -4 34 -15 0 -28 49 -18 65 4 5 7 20 7 33 1 17 -3 21 -20 17
-11 -3 -14 -2 -7 1 14 7 16 34 2 34 -5 0 -10 12 -11 28 0 15 -3 22 -5 15 -3
-7 -12 -9 -20 -6 -15 6 -20 63 -5 63 6 0 9 9 8 20 -1 11 -6 19 -11 17 -5 -2
-23 10 -40 25 -26 24 -29 30 -16 38 13 8 12 12 -7 25 -13 9 -23 22 -23 28 0 7
-8 21 -16 32 -15 20 -16 20 -29 1 -13 -17 -15 -17 -21 -3 -3 10 -4 24 0 32 3
8 2 15 -3 15 -5 0 -11 10 -14 21 -4 15 -11 20 -21 16 -10 -4 -16 -1 -16 8 0 8
-4 15 -9 15 -5 0 -11 10 -14 23 -4 12 -13 31 -21 42 -14 17 -17 18 -26 5 -9
-13 -10 -13 -10 0 0 9 5 21 11 27 13 13 -17 66 -32 57 -6 -3 -26 11 -47 30
-20 20 -40 36 -44 36 -4 0 -8 9 -8 20 0 26 -48 59 -60 40 -5 -9 -10 -3 -15 18
-6 28 -9 31 -36 25 -22 -4 -30 -1 -36 13 -4 10 -2 19 5 22 7 2 12 11 12 20 -1
29 -25 50 -61 54 -29 3 -34 6 -31 27 1 13 -5 29 -15 37 -26 19 -35 17 -28 -6
4 -11 2 -20 -4 -20 -6 0 -11 5 -11 10 0 6 -12 10 -26 10 -19 0 -25 4 -21 15 7
16 -41 55 -67 55 -9 0 -25 -9 -36 -20 -24 -24 -27 -24 -27 -5 0 8 4 15 9 15
18 0 7 17 -19 31 -16 7 -52 28 -81 46 -29 18 -57 33 -62 33 -13 0 -86 50 -82
58 1 3 -4 7 -13 8 -8 1 -31 12 -51 23 -19 11 -49 22 -67 23 -18 1 -40 8 -50
17 -16 13 -19 13 -27 1 -8 -12 -10 -12 -10 4 0 12 -5 16 -15 13 -8 -4 -17 -1
-21 4 -3 6 -15 8 -26 6 -11 -3 -33 3 -50 13 -16 10 -38 15 -49 13 -11 -3 -19
0 -19 8 0 7 -3 9 -6 6 -4 -3 -16 0 -28 8 -11 8 -28 15 -38 15 -10 0 -18 5 -18
11 0 5 -5 7 -12 3 -10 -7 -82 -7 -208 -1 -19 1 -50 -1 -67 -5 -29 -7 -33 -5
-33 13 0 18 -4 20 -27 15 -58 -14 -113 -16 -113 -5 0 6 -7 9 -15 5 -8 -3 -15
-1 -15 4 0 17 -36 11 -60 -10z m-1809 -1851 c46 -12 89 -45 89 -69 0 -11 -4
-29 -10 -42 -5 -13 -14 -42 -20 -65 -13 -53 -30 -55 -73 -8 -25 27 -39 34 -62
32 -41 -4 -78 20 -71 47 3 11 -2 28 -11 38 -12 13 -13 22 -6 29 14 14 34 3 27
-14 -6 -16 41 -61 55 -53 14 9 -8 56 -25 56 -8 0 -11 6 -7 17 5 12 3 14 -8 8
-11 -7 -11 -5 1 11 29 38 29 38 121 13z m-247 -91 c16 -106 17 -128 4 -128 -7
0 -51 14 -98 31 -47 17 -95 33 -108 36 -35 8 -35 21 0 39 39 21 143 52 175 53
17 1 23 -6 27 -31z m-280 -159 c76 -49 191 -109 212 -109 34 0 115 -33 125
-51 9 -18 2 -29 -55 -87 l-66 -66 -38 11 c-160 46 -434 150 -489 186 -21 13
-3 36 61 73 33 21 68 43 76 50 21 17 73 44 86 44 6 0 46 -23 88 -51z m-357
-200 c56 -48 304 -160 421 -189 45 -11 51 -20 28 -39 -11 -10 -34 -6 -108 19
-51 17 -111 42 -133 54 -22 13 -62 31 -90 41 -65 22 -208 97 -212 111 -3 10
30 32 51 33 4 1 24 -13 43 -30z m-2380 -370 c102 -11 176 -38 228 -83 48 -41
34 -46 -165 -52 -45 -1 -79 4 -109 17 -49 21 -77 24 -86 9 -8 -13 -48 -13 -62
1 -14 14 -85 14 -112 0 -28 -15 -61 -14 -61 3 0 18 14 29 101 75 83 45 109 48
266 30z m3038 -148 c42 -16 50 -23 53 -47 8 -75 46 -191 75 -233 30 -44 32
-51 32 -138 0 -53 4 -94 10 -95 6 -2 11 8 13 22 4 38 34 101 46 97 18 -6 36
-118 30 -179 -7 -65 8 -59 -134 -63 -36 -1 -85 -7 -110 -14 -121 -35 -202 -61
-255 -85 -81 -36 -102 -45 -123 -51 -22 -6 -44 -20 -217 -136 -38 -26 -87 -54
-107 -62 -21 -9 -38 -23 -38 -31 0 -13 -69 -76 -84 -76 -12 0 -70 44 -126 95
-73 66 -135 115 -167 132 -21 11 -28 11 -35 1 -5 -9 -8 -10 -8 -1 0 6 5 15 11
18 6 5 2 13 -11 22 -12 8 -24 13 -27 10 -3 -3 -16 5 -30 17 -17 16 -23 28 -17
38 13 21 139 136 215 196 72 56 98 64 106 32 7 -25 8 -25 50 1 21 13 42 38 53
63 10 25 42 64 76 94 63 56 306 227 364 257 19 10 40 24 45 31 17 22 128 82
175 95 45 12 84 9 135 -10z m-3420 -23 c-23 -73 -34 -133 -40 -211 -4 -48 -11
-85 -15 -82 -14 9 -90 153 -90 171 0 35 101 144 134 144 14 0 17 -5 11 -22z
m702 0 c48 -53 73 -161 53 -236 -22 -84 -59 -156 -85 -169 -14 -6 -25 -8 -25
-4 0 5 -20 7 -45 6 -25 0 -49 4 -54 9 -4 6 -23 67 -41 136 -33 123 -60 193
-80 205 -5 3 -10 15 -10 26 0 17 8 19 68 20 37 0 92 7 122 14 77 17 74 17 97
-7z m-502 -65 c16 -40 23 -150 13 -198 -19 -92 -49 -121 -96 -91 -23 14 0 184
37 279 12 31 35 36 46 10z m-951 -603 c33 -11 69 -20 81 -20 19 0 65 -47 65
-67 0 -5 27 -35 61 -68 95 -94 151 -170 147 -203 l-3 -27 -145 1 c-207 0 -479
10 -486 17 -10 9 36 29 53 23 12 -5 13 -4 5 7 -7 8 -9 17 -5 20 3 4 -4 7 -16
7 -20 0 -23 4 -19 30 5 32 -8 39 -31 18 -9 -9 -15 -9 -17 -2 -3 6 -18 9 -34 6
-22 -3 -35 2 -55 24 -27 29 -20 43 13 28 44 -19 95 -25 113 -13 10 6 11 9 2
10 -7 1 -17 2 -22 3 -5 0 -27 13 -50 28 -22 14 -50 29 -61 33 -11 3 -20 11
-20 17 0 5 -7 8 -15 4 -18 -6 -18 -5 -6 28 6 13 25 31 43 39 31 14 178 60 223
70 47 11 124 5 179 -13z m2206 -967 c19 -6 61 -19 93 -28 31 -8 57 -20 57 -26
0 -5 -11 -4 -27 4 -38 18 -169 15 -165 -4 3 -11 1 -12 -9 -1 -16 15 -49 16
-49 2 0 -6 7 -13 15 -16 16 -7 21 -34 6 -34 -5 0 -14 6 -20 14 -6 7 -22 11
-36 8 -20 -3 -24 -1 -19 12 4 11 13 15 25 11 14 -5 17 -2 13 10 -9 23 -101 17
-108 -7 -3 -12 -14 -18 -36 -18 -18 0 -29 -4 -25 -10 4 -6 10 -8 14 -6 4 3 13
1 21 -5 13 -7 12 -9 -1 -9 -9 0 -19 -7 -23 -15 -6 -17 -26 -20 -26 -4 0 10 -6
18 -47 52 -20 18 -22 18 -46 -7 -29 -29 -80 -38 -57 -11 7 9 19 14 26 11 7 -3
11 0 9 7 -8 21 95 71 155 77 89 9 222 5 260 -7z m2730 -82 c0 -5 -6 -12 -12
-14 -8 -3 -6 -6 5 -6 17 -1 25 -21 8 -21 -5 0 -8 -12 -6 -27 2 -16 4 -32 4
-36 1 -5 5 -6 10 -2 5 3 12 -4 16 -15 15 -47 80 -10 80 45 0 17 7 20 39 20 25
0 41 -5 44 -14 3 -8 0 -11 -7 -7 -6 4 -11 2 -11 -4 0 -7 9 -14 20 -17 11 -3
21 -10 22 -17 6 -45 5 -76 -4 -111 -6 -22 -12 -48 -13 -57 -2 -9 -12 -30 -23
-45 -10 -15 -35 -53 -54 -83 -97 -149 -211 -236 -364 -274 -86 -22 -142 -20
-194 7 -44 22 -64 47 -38 47 7 0 24 12 37 26 13 14 37 32 53 40 35 18 36 30 1
37 -34 6 -43 1 -43 -24 0 -19 -1 -19 -26 -3 -15 10 -23 23 -19 32 4 11 0 13
-16 9 -16 -4 -19 -2 -13 11 3 9 6 24 6 33 0 10 13 21 31 28 18 6 22 9 10 7
-21 -4 -21 -3 -6 20 8 13 20 24 25 24 5 0 7 4 4 9 -3 5 11 17 31 26 26 13 38
14 41 6 2 -6 11 -11 19 -11 9 0 13 -6 10 -15 -4 -8 -1 -17 5 -21 7 -4 8 -3 4
4 -4 7 -2 12 5 12 8 0 8 4 -1 15 -7 9 -11 17 -9 18 74 50 92 64 100 79 5 10 7
24 3 31 -5 8 -2 7 9 -2 9 -7 17 -9 17 -3 0 10 37 26 54 23 5 -1 12 2 15 7 3 5
15 14 26 20 26 15 0 15 -28 1 -16 -9 -22 -9 -25 0 -3 9 -11 8 -28 -4 -13 -8
-24 -12 -24 -8 0 5 18 19 40 33 22 14 40 28 40 32 0 5 11 8 25 8 20 0 25 -5
25 -26 0 -22 2 -25 15 -14 19 16 20 70 1 70 -9 0 -13 10 -12 25 1 17 6 23 15
20 17 -6 43 14 35 27 -8 12 3 38 16 38 5 0 10 -4 10 -9z m-1403 -3364 c29 -23
93 -98 144 -167 106 -145 167 -217 297 -353 58 -60 92 -103 89 -111 -3 -8 -1
-17 6 -19 7 -2 1 -4 -13 -4 -14 0 -72 -12 -130 -27 -58 -14 -127 -27 -155 -28
-28 -2 -55 -9 -61 -17 -7 -9 -22 -12 -42 -9 -17 2 -33 1 -34 -3 -2 -5 -22 -10
-45 -11 -24 -2 -43 -6 -43 -9 0 -6 -79 -12 -137 -10 -13 0 -23 -4 -23 -10 0
-5 -17 -9 -37 -8 -21 1 -63 -3 -93 -9 -95 -19 -228 -34 -240 -27 -6 4 -16 3
-23 -3 -7 -5 -50 -10 -96 -11 -47 -1 -89 -5 -94 -8 -18 -11 -457 -22 -497 -12
-14 3 -44 0 -68 -7 -31 -9 -44 -9 -49 -1 -3 7 -3 9 2 5 4 -4 14 -3 21 3 7 6
82 45 166 88 219 111 305 161 458 267 183 126 365 280 480 404 81 89 141 141
160 140 3 -1 28 -20 57 -43z"/>
<path d="M15716 9599 c-58 -14 -260 -153 -347 -239 -109 -108 -150 -168 -218
-319 -59 -131 -105 -211 -122 -211 -4 0 -14 -28 -20 -62 -10 -52 -20 -70 -56
-106 -38 -39 -43 -49 -43 -91 0 -40 -8 -58 -57 -131 -31 -47 -78 -110 -103
-140 -26 -30 -60 -75 -75 -100 -30 -49 -40 -59 -102 -108 -48 -37 -49 -40 -67
-154 -19 -112 -20 -111 148 -128 189 -18 309 0 453 67 43 20 154 58 248 84 93
26 213 62 265 81 185 66 286 98 345 109 57 10 263 69 315 91 93 38 -198 41
-450 4 -218 -32 -351 -56 -371 -66 -25 -14 -243 -48 -380 -60 -136 -11 -170
-6 -189 30 -9 18 -7 27 13 54 30 38 52 86 106 226 22 58 52 121 65 141 24 35
80 170 106 254 18 57 46 110 144 273 111 187 174 260 351 408 71 59 94 83 95
97 0 8 -2 8 -54 -4z"/>
<path d="M11456 9111 c-17 -19 -46 -134 -46 -187 0 -20 -6 -34 -16 -38 -9 -3
-78 -3 -153 0 -235 11 -323 -14 -371 -104 -31 -59 -47 -75 -77 -75 -15 0 -121
3 -235 8 l-207 8 -10 -24 c-5 -14 -16 -62 -26 -108 -14 -70 -15 -86 -3 -96 9
-9 84 -17 243 -25 127 -6 246 -16 265 -21 37 -9 49 -23 204 -248 33 -47 66
-91 75 -98 9 -6 39 -15 66 -18 51 -7 159 -35 205 -53 14 -5 54 -13 90 -17 36
-4 83 -13 105 -20 77 -25 94 -26 120 -9 14 9 33 14 44 11 10 -2 43 0 72 5 30
6 187 11 349 12 l295 1 62 34 63 34 127 -37 c71 -21 165 -51 211 -67 46 -16
91 -29 101 -29 30 0 208 -54 324 -99 122 -47 153 -52 116 -21 -13 12 -64 58
-113 103 -176 161 -234 212 -276 242 -23 17 -60 56 -81 87 -49 72 -75 81 -127
44 -21 -14 -48 -26 -61 -26 -19 0 -21 4 -16 23 4 12 15 31 25 42 33 38 90 130
90 145 0 15 71 184 104 247 9 18 27 35 41 39 15 4 31 21 44 47 l21 41 -21 22
c-16 17 -20 32 -17 70 3 47 2 49 -25 52 -60 7 -142 -90 -233 -276 -30 -62 -68
-127 -83 -145 -16 -18 -32 -48 -36 -67 -12 -58 -58 -130 -82 -130 -5 0 -8 87
-8 192 0 193 0 193 -34 288 -18 52 -37 99 -42 104 -20 21 -9 53 21 66 39 16
38 26 -5 40 -27 9 -43 9 -70 -1 -31 -12 -38 -11 -64 9 -31 22 -57 28 -63 14
-1 -4 -41 -20 -88 -36 -47 -16 -106 -39 -132 -52 -57 -29 -87 -30 -119 -5 -13
10 -46 21 -72 25 -32 5 -59 17 -81 37 -39 33 -48 35 -67 13 -7 -9 -23 -20 -36
-25 -17 -6 -23 -17 -25 -41 -3 -60 3 -122 17 -178 14 -52 14 -56 -6 -71 -20
-15 -20 -17 -5 -54 9 -21 14 -47 10 -58 -5 -17 -12 -18 -73 -12 -80 8 -175 37
-256 76 -123 59 -316 57 -378 -5 -8 -8 -30 -24 -50 -35 -28 -15 -38 -17 -50
-8 -20 16 -30 78 -17 112 22 58 25 59 234 56 167 -2 196 -4 229 -21 29 -16 46
-18 75 -12 26 6 52 5 82 -4 54 -16 50 -16 50 -6 0 4 -29 18 -64 30 -86 31 -95
43 -68 90 11 20 34 74 50 119 25 69 28 83 15 87 -25 10 -39 7 -57 -13z m912
-98 c45 -45 66 -108 67 -199 0 -77 -18 -102 -79 -106 l-41 -3 3 -51 c3 -70 -8
-79 -102 -70 l-74 7 -31 -38 c-17 -21 -31 -45 -31 -54 0 -18 -32 -59 -46 -59
-27 0 -45 47 -32 80 4 8 12 40 18 70 11 54 86 206 114 229 9 8 28 10 50 5 42
-7 49 11 16 41 -11 10 -20 28 -20 40 0 24 113 145 136 145 7 0 31 -17 52 -37z
m-903 -633 c128 -14 132 -16 140 -47 9 -37 -49 -151 -82 -159 -50 -13 -203
131 -203 192 0 20 23 36 40 28 3 -1 50 -7 105 -14z m585 -62 c11 -13 23 -34
26 -48 3 -14 13 -44 21 -66 30 -83 -27 -115 -82 -47 -24 31 -30 49 -33 101 -3
47 -1 67 9 73 22 14 37 11 59 -13z"/>
<path d="M13285 8903 c3 -16 13 -32 21 -36 8 -4 14 -17 14 -27 0 -13 7 -20 20
-20 10 0 26 -10 35 -22 99 -141 266 -362 300 -398 23 -25 60 -70 80 -100 21
-30 55 -72 76 -93 38 -37 42 -46 54 -118 7 -47 28 -65 107 -93 89 -33 126 -53
139 -77 12 -23 4 -89 -11 -89 -6 0 -10 -6 -10 -13 0 -8 -11 -19 -24 -27 -37
-19 -106 19 -194 107 -67 68 -97 84 -116 66 -4 -5 -59 -8 -121 -8 -62 0 -117
-3 -121 -7 -12 -13 62 -93 146 -156 120 -91 266 -152 363 -152 26 0 36 -5 40
-20 12 -46 -1 -57 -71 -64 -37 -3 -78 -3 -92 0 -46 12 -110 16 -110 7 0 -4 41
-53 91 -108 136 -149 248 -293 304 -390 28 -47 65 -109 83 -137 18 -29 54 -99
79 -157 24 -58 53 -124 63 -146 32 -71 48 -109 58 -140 7 -21 11 -24 11 -10 1
28 -27 185 -39 215 -5 14 -17 57 -26 95 -9 39 -21 76 -27 83 -6 7 -11 45 -13
85 -1 40 -10 97 -19 127 -8 30 -20 84 -25 120 -6 36 -15 81 -20 100 -5 19 -12
51 -15 70 -16 103 -30 145 -61 191 -19 28 -34 63 -34 78 0 15 -5 32 -12 39 -9
9 -7 13 5 18 9 3 17 13 17 21 0 9 13 30 29 49 22 25 31 47 36 91 3 32 13 86
21 120 9 38 14 103 13 165 -1 79 2 113 16 146 13 33 16 56 10 100 -3 31 -6 80
-6 107 2 58 28 211 42 236 15 29 -15 30 -68 3 -55 -28 -87 -30 -134 -9 -45 20
-60 32 -97 83 -30 42 -55 65 -99 90 -27 15 -113 16 -113 2 0 -6 20 -32 44 -58
75 -80 80 -119 26 -217 -15 -27 -33 -75 -40 -105 -7 -30 -14 -61 -16 -67 -2
-7 -17 -13 -33 -13 -31 0 -101 28 -101 41 0 3 -55 54 -122 112 -168 144 -314
287 -322 315 -4 12 -14 22 -23 22 -12 0 -14 -6 -8 -27z"/>
<path d="M14484 7413 c-24 -37 -29 -132 -10 -210 8 -37 22 -108 31 -158 8 -49
23 -130 34 -180 11 -49 31 -146 46 -215 15 -69 35 -145 46 -170 24 -59 50
-171 54 -240 4 -74 -14 -116 -54 -125 -17 -3 -34 -12 -38 -18 -4 -7 -8 -149
-8 -317 -1 -281 -3 -318 -28 -475 -43 -266 -136 -612 -206 -767 -11 -24 -36
-79 -55 -122 -94 -207 -265 -462 -436 -650 -92 -101 -325 -308 -466 -413 -152
-113 -214 -155 -324 -217 -40 -23 -48 -32 -35 -38 8 -5 19 -7 24 -4 4 3 52 8
107 12 54 3 101 7 104 9 3 2 44 6 90 10 47 3 108 10 135 15 28 5 84 12 125 15
106 9 291 33 385 51 132 26 171 41 205 84 16 21 30 42 30 47 0 26 74 81 151
111 101 40 157 68 185 93 11 11 24 19 28 19 4 0 17 11 30 25 13 14 28 25 35
25 6 0 11 6 11 13 0 15 106 127 120 127 6 0 16 11 22 25 6 14 14 25 18 25 4 0
24 17 46 38 21 21 74 60 117 86 42 26 77 52 77 57 0 5 7 9 16 9 9 0 18 9 21
20 3 11 11 20 19 20 7 0 27 14 44 30 17 17 35 28 41 25 5 -4 9 -2 9 4 0 15 49
61 65 61 8 0 14 3 13 8 -4 12 26 52 39 52 7 0 13 4 13 10 0 5 24 33 52 61 49
48 65 69 85 109 4 8 17 25 30 38 13 13 23 29 23 36 0 7 11 30 25 50 14 21 23
41 20 46 -3 4 2 10 9 13 8 3 22 33 32 67 9 33 21 63 25 66 5 3 9 14 9 24 0 10
8 26 18 36 9 10 17 22 17 28 0 6 6 25 12 41 6 17 19 57 29 90 10 33 22 63 28
67 6 4 5 12 -3 22 -8 9 -10 24 -5 38 17 49 20 86 10 116 -4 12 -4 22 1 22 4 0
9 72 11 160 2 104 7 171 16 192 25 60 -8 294 -51 367 -15 25 -26 48 -25 51 5
13 -12 71 -24 80 -7 7 -18 28 -25 48 -7 20 -17 42 -24 48 -7 7 -17 39 -24 71
-9 47 -17 63 -45 86 -19 15 -38 27 -41 27 -17 0 -111 132 -134 187 -7 18 -19
38 -27 44 -8 6 -14 18 -14 26 0 8 -13 32 -28 52 -16 20 -34 50 -41 67 -6 16
-31 51 -54 75 -52 56 -77 87 -77 96 0 3 -45 51 -99 107 -194 198 -218 225
-265 300 -53 85 -97 133 -135 148 -14 6 -59 11 -99 12 -65 1 -74 -1 -88 -21z"/>
</g>
</svg>
